<?xml version="1.0" encoding="UTF-8"?>
<!DOCTYPE svg PUBLIC "-//W3C//DTD SVG 1.1//EN" "http://www.w3.org/Graphics/SVG/1.1/DTD/svg11.dtd">
<!-- Creator: CorelDRAW -->
<svg xmlns="http://www.w3.org/2000/svg" xml:space="preserve" width="500px" height="543px" shape-rendering="geometricPrecision" text-rendering="geometricPrecision" image-rendering="optimizeQuality" fill-rule="evenodd" clip-rule="evenodd"
viewBox="0 0 500 543"
 xmlns:xlink="http://www.w3.org/1999/xlink"
 xmlns:svg="http://www.w3.org/2000/svg"
 version="1.0">
 <g id="Layer_x0020_1">
  <metadata id="CorelCorpID_0Corel-Layer"/>
  <path id="path1937" fill="#BF9F4F" stroke="black" stroke-width="0.368504" d="M0.161858 0.579969l499.554 -0.121606 -32.2461 327.851c-16.2238,282.265 -415.087,287.889 -438.667,-0.148819l-28.6404 -327.58z"/>
  <path fill="#0581ED" d="M16.2828 108.13c9.53122,0.754583 4.62756,-15.3916 50.9667,-21.5615 16.5569,-2.20451 85.5114,16.9866 167.346,14.5845 65.6762,-3.87468 65.9784,-21.9864 76.1593,-3.19805 19.8641,-2.42221 42.6337,-2.22945 62.4977,-7.26662 21.3129,-23.8703 26.1851,-18.6837 34.9427,-17.1502 2.60532,0.456095 16.7831,-0.650268 20.5149,4.23184 3.43162,4.48923 22.955,2.42249 31.3407,12.0719 0.824882,0.94904 4.28003,3.29698 5.55137,7.46278 1.09644,3.59235 6.97465,6.7218 6.62287,9.1732 -1.47147,10.2521 5.78155,17.7421 3.95206,23.4748 -1.7178,5.38271 -2.9829,22.7302 -5.21802,26.1644 -8.75991,13.4589 -9.04734,22.4728 -7.4435,32.0377 2.02621,12.0815 -9.68344,17.6139 -13.5187,27.5315 -12.0719,-7.47043 -26.7639,-30.3316 -19.0925,-37.5293 15.6643,-14.6968 -1.37877,-14.5726 7.77827,-24.9086 3.82281,-4.31462 1.01537,-11.9832 -3.69014,-16.8749 -5.33311,-5.54372 -13.0227,-8.34889 -14.7535,-13.7631 -7.42564,1.17978 -13.7852,1.10069 -19.66,-0.818363 -47.3505,-0.824882 -87.9291,17.2622 -127.053,15.2257 -64.4956,-3.35736 -115.902,-0.924662 -167.936,-11.6371 -28.4604,-5.85922 -37.9624,-16.0977 -57.4192,-1.21947 -4.63493,3.54416 -30.4963,1.3252 -31.8886,-16.0313z"/>
  <path fill="black" d="M226.756 135.812c-39.7511,-1.2257 -107.544,-2.51575 -145.974,-16.9812 -20.9251,-7.87663 -30.1788,8.68536 -46.952,-1.61405 20.4973,5.52274 27.4113,-6.62939 43.7687,-1.1554 49.4331,16.5433 100.019,14.8139 149.157,17.4263l0 2.32441z"/>
  <path fill="white" d="M218.33 135.812c-23.2245,0.378142 -62.5065,-2.02365 -94.5806,-7.59515 -33.5988,-5.83625 -55.9075,-17.0518 -68.9998,-8.38517 19.2492,-5.66476 76.536,22.9054 163.58,15.9803z"/>
  <path fill="black" d="M143.602 299.393l0 9.87875c-25.5444,3.51099 -42.251,-12.1303 -31.9606,-21.5008 0.738709,4.58816 2.47635,6.94375 6.46526,8.24485 3.98835,1.3011 12.8883,0.0870237 16.4883,0.762237 3.07276,0.576284 5.13326,2.03386 9.00709,2.61496z"/>
  <path fill="white" d="M142.439 301.137l0 9.87875c-25.5444,3.51099 -42.251,-12.1303 -31.9606,-21.5008 0.738709,4.58816 2.47635,6.94375 6.46526,8.24485 3.98835,1.3011 12.8883,0.0870237 16.4883,0.762237 3.07276,0.576284 5.13326,2.03386 9.00709,2.61496z"/>
  <path fill="white" d="M302.589 299.975l0 6.97323c3.09912,2.13052 7.06989,2.22747 10.1693,4.64882l0 -6.97323c-2.80885,-2.1308 -6.77963,-3.0994 -10.1693,-4.64882z"/>
  <path fill="white" d="M355.76 301.137l0 9.87875c25.5444,3.51099 42.251,-12.1303 31.9606,-21.5008 -0.738709,4.58816 -2.47635,6.94375 -6.46526,8.24485 -3.98835,1.3011 -12.8883,0.0870237 -16.4883,0.762237 -3.07276,0.576284 -5.13326,2.03386 -9.00709,2.61496z"/>
  <path fill="white" d="M384.234 288.062c-9.13323,-0.99156 -13.5105,1.34164 -16.5614,8.13544l10.1693 0 6.39213 -8.13544z"/>
  <path fill="white" d="M302.88 278.474l0 6.39213c13.123,5.76255 25.3262,6.92419 36.9,4.93937 1.64636,-2.1308 0.677764,-7.16712 -1.16221,-9.87875 -11.5254,0.677764 -23.438,0.193323 -35.7378,-1.45276z"/>
  <path fill="white" d="M342.685 281.961l2.32441 5.52048c10.7742,-1.76797 20.6045,-3.85058 29.0551,-6.39213 2.80828,-2.32413 -1.93748,-12.009 -8.13544,-11.6221 -8.62045,3.29329 -16.1745,7.65156 -23.2441,12.4937z"/>
  <path fill="white" d="M374.065 270.048l4.64882 8.42599c6.24756,0.390331 8.74971,-1.49329 13.3883,-2.66655 5.25742,-1.32973 9.69449,-2.07978 13.307,-4.46032 3.28876,-2.1668 6.03468,-12.0215 0.907087,-16.4078 -1.83288,4.36904 -5.02696,6.86637 -8.99859,8.29389 -3.97162,1.42753 -10.4726,1.16589 -13.6644,1.8754 -3.48662,0.774993 -6.68268,2.42136 -9.58819,4.93937z"/>
  <path fill="white" d="M385.687 261.913l8.42599 0c1.74331,-4.45493 4.64882,-7.16684 6.97323,-10.7504 -10.3646,0.968315 -14.3354,5.13298 -15.3992,10.7504z"/>
  <path fill="white" d="M336.874 271.791c-12.0095,-1.16249 -23.5352,-2.80914 -33.9945,-5.52048 -0.387496,-1.74331 -0.387213,-3.48662 0,-5.22992 12.0223,-1.58825 24.251,-3.79616 35.4473,-2.90551 4.45493,1.54942 4.26104,13.6556 -1.45276,13.6559z"/>
  <path fill="white" d="M343.266 266.561c0.38778,-2.71134 0.000283465,-5.42325 -1.16221,-8.13544 1.21039,-2.85704 8.47871,-7.41005 7.55405,-6.10129 -0.620221,0.87789 1.11402,-5.56923 6.68296,-6.68296 7.60224,-1.30706 13.3163,10.1214 9.87875,14.5276 -7.65128,3.82649 -15.3028,6.44117 -22.9536,6.39213z"/>
  <path fill="white" d="M361.862 243.317l10.1693 13.6559c9.07711,-1.53354 15.6838,-7.30772 24.8366,-12.1278 5.49213,-2.89191 10.4601,-2.68668 15.8477,-8.62555 6.33629,-6.98457 10.1438,-20.9166 -3.20315,-29.2215 2.5268,18.1111 -14.1404,17.8401 -23.3904,19.444 -9.68315,1.67868 -21.0036,11.3757 -24.26,16.8749z"/>
  <path fill="white" d="M382.781 224.722l11.9126 -2.32441c3.09912,-9.58791 9.39402,-15.3989 11.3315,-18.0142 -7.84517,-2.90523 -22.47,7.16712 -23.2441,20.3386z"/>
  <path fill="white" d="M297.359 231.695l3.48662 22.9536c15.6898,-11.3315 35.1567,-10.4598 42.711,-15.6898 2.32441,-2.9058 2.32441,-6.19909 0,-9.87875l-10.7504 -17.1425c-3.09912,-1.93691 -6.58602,-1.93691 -10.4598,0 -8.32933,9.49153 -22.7599,16.3678 -24.9874,19.7575z"/>
  <path fill="white" d="M347.334 228.209l-13.3654 -18.8858c-0.193606,-7.45739 5.42381,-16.9486 7.26378,-24.9874 2.71219,-2.71162 6.19824,-3.48605 10.4598,-2.32441 10.1222,1.69143 18.9346,5.37336 26.7307,10.1693 3.00217,2.03386 3.67994,4.4555 2.03386,7.26378 -2.73543,10.7014 -22.0575,15.0599 -33.1229,28.7646z"/>
  <path fill="white" d="M384.234 194.214c-11.041,-9.58791 -23.3405,-15.3989 -37.4811,-15.6898 -4.69786,-2.95257 -5.66589,-9.63553 -4.93937,-18.0142l17.7236 -22.663c2.33518,-22.6491 -0.690803,-35.5547 -13.0748,-42.711 0.988441,-16.5217 -5.0434,-17.4558 -12.242,-23.0686 -6.97748,-5.44025 -15.7822,-9.59698 -29.0163,-10.9259 19.7717,-23.7444 57.2794,6.23424 82.7847,43.2893 14.2084,20.6425 26.1989,44.0737 21.7536,63.1242 -2.49364,10.6866 -10.4505,22.3194 -25.5084,26.659z"/>
  <path fill="white" d="M279.345 173.294c-11.4284,-1.16192 -15.4959,-6.58517 -12.2032,-16.2709l14.5276 -5.22992c-3.0994,-24.503 33.0259,9.68514 6.39213,7.55433l-8.71654 13.9465z"/>
  <path fill="white" d="M274.406 152.375c-5.18117,-4.96318 -9.73333,-10.2413 -13.3654,-15.9803 2.68753,-10.6288 5.73874,-21.5243 10.7504,-31.3795l2.61496 47.3599z"/>
  <path fill="white" d="M257.554 131.746c-1.83969,-4.14057 -5.42325,-11.5767 -7.55433,-15.9803 2.5183,-12.6873 7.36044,-21.888 11.3315,-32.2512 3.09912,-2.61496 10.266,-1.74331 9.29764,6.97323 -6.29547,11.0412 -10.6537,24.7944 -13.0748,41.2583z"/>
  <path fill="white" d="M469.366 63.7566c-25.6405,9.74722 -61.1309,-11.3298 -92.1788,-21.1334 -34.8415,-11.0015 -68.0304,-19.0763 -76.8918,-3.82564 -8.92602,14.5386 -21.6292,28.4959 -26.7781,43.6153 -2.80318,-1.95732 -5.99358,-3.14022 -9.57119,-3.54756 8.03679,-14.8425 18.1074,-26.1984 25.8537,-42.7842 11.1322,-18.881 31.6245,-18.5445 62.0785,-7.9166 11.5203,4.0201 24.262,6.33345 37.0939,10.5863 24.9143,8.25704 47.0775,23.4723 80.3937,25.0058z"/>
  <path fill="white" d="M195.61 299.975l0 6.97323c-3.09912,2.13052 -7.06989,2.22747 -10.1693,4.64882l0 -6.97323c2.80885,-2.1308 6.77963,-3.0994 10.1693,-4.64882z"/>
  <path fill="white" d="M113.965 288.062c9.13323,-0.99156 13.5105,1.34164 16.5614,8.13544l-10.1693 0 -6.39213 -8.13544z"/>
  <path fill="white" d="M195.319 278.474l0 6.39213c-13.123,5.76255 -25.3262,6.92419 -36.9,4.93937 -1.64636,-2.1308 -0.677764,-7.16712 1.16221,-9.87875 11.5254,0.677764 23.438,0.193323 35.7378,-1.45276z"/>
  <path fill="white" d="M155.514 281.961l-2.32441 5.52048c-10.7742,-1.76797 -20.6045,-3.85058 -29.0551,-6.39213 -2.80828,-2.32413 1.93748,-12.009 8.13544,-11.6221 8.62045,3.29329 16.1745,7.65156 23.2441,12.4937z"/>
  <path fill="white" d="M124.134 270.048l-4.64882 8.42599c-6.24756,0.390331 -8.74971,-1.49329 -13.3883,-2.66655 -5.25742,-1.32973 -9.69449,-2.07978 -13.307,-4.46032 -3.28876,-2.1668 -6.03468,-12.0215 -0.907087,-16.4078 1.83288,4.36904 5.02696,6.86637 8.99859,8.29389 3.97162,1.42753 10.4726,1.16589 13.6644,1.8754 3.48662,0.774993 6.68268,2.42136 9.58819,4.93937z"/>
  <path fill="white" d="M112.512 261.913l-8.42599 0c-1.74331,-4.45493 -4.64882,-7.16684 -6.97323,-10.7504 10.3646,0.968315 14.3354,5.13298 15.3992,10.7504z"/>
  <path fill="white" d="M161.325 271.791c12.0095,-1.16249 23.5352,-2.80914 33.9945,-5.52048 0.387496,-1.74331 0.387213,-3.48662 0,-5.22992 -12.0223,-1.58825 -24.251,-3.79616 -35.4473,-2.90551 -4.45493,1.54942 -4.26104,13.6556 1.45276,13.6559z"/>
  <path fill="white" d="M154.932 266.561c-0.38778,-2.71134 -0.000283465,-5.42325 1.16221,-8.13544 -1.21039,-2.85704 -8.47871,-7.41005 -7.55405,-6.10129 0.620221,0.87789 -1.11402,-5.56923 -6.68296,-6.68296 -7.60224,-1.30706 -13.3163,10.1214 -9.87875,14.5276 7.65128,3.82649 15.3028,6.44117 22.9536,6.39213z"/>
  <path fill="white" d="M136.337 243.317l-10.1693 13.6559c-9.07711,-1.53354 -15.6838,-7.30772 -24.8366,-12.1278 -5.49213,-2.89191 -10.4601,-2.68668 -15.8477,-8.62555 -6.33629,-6.98457 -10.1438,-20.9166 3.20315,-29.2215 -2.5268,18.1111 14.1404,17.8401 23.3904,19.444 9.68315,1.67868 21.0036,11.3757 24.26,16.8749z"/>
  <path fill="white" d="M115.417 224.722l-11.9126 -2.32441c-3.09912,-9.58791 -9.39402,-15.3989 -11.3315,-18.0142 7.84517,-2.90523 22.47,7.16712 23.2441,20.3386z"/>
  <path fill="white" d="M200.84 231.695l-3.48662 22.9536c-15.6898,-11.3315 -35.1567,-10.4598 -42.711,-15.6898 -2.32441,-2.9058 -2.32441,-6.19909 0,-9.87875l10.7504 -17.1425c3.09912,-1.93691 6.58602,-1.93691 10.4598,0 8.32933,9.49153 22.7599,16.3678 24.9874,19.7575z"/>
  <path fill="white" d="M150.865 228.209l13.3654 -18.8858c0.193606,-7.45739 -5.42381,-16.9486 -7.26378,-24.9874 -2.71219,-2.71162 -6.19824,-3.48605 -10.4598,-2.32441 -10.1222,1.69143 -18.9346,5.37336 -26.7307,10.1693 -3.00217,2.03386 -3.67994,4.4555 -2.03386,7.26378 2.73543,10.7014 22.0575,15.0599 33.1229,28.7646z"/>
  <path fill="white" d="M113.965 194.214c11.041,-9.58791 23.3405,-15.3989 37.4811,-15.6898 4.69786,-2.95257 5.66589,-9.63553 4.93937,-18.0142 -2.71191,-11.6221 -13.2687,-13.3654 -17.7236,-22.663 -5.02413,-24.4423 -1.27134,-36.8632 13.0748,-42.711 -0.988441,-16.5217 5.0434,-17.4558 12.242,-23.0686 6.97748,-5.44025 15.7822,-9.59698 29.0163,-10.9259 -19.7717,-23.7444 -57.2794,6.23424 -82.7847,43.2893 -14.2084,20.6425 -26.1989,44.0737 -21.7536,63.1242 2.49364,10.6866 10.4505,22.3194 25.5084,26.659z"/>
  <path fill="white" d="M218.854 173.294c11.4284,-1.16192 15.4959,-6.58517 12.2032,-16.2709l-14.5276 -5.22992c3.0994,-24.503 -33.0259,9.68514 -6.39213,7.55433l8.71654 13.9465z"/>
  <path fill="white" d="M223.793 152.375c5.18117,-4.96318 9.73333,-10.2413 13.3654,-15.9803 -2.68753,-10.6288 -5.73874,-21.5243 -10.7504,-31.3795l-2.61496 47.3599z"/>
  <path fill="white" d="M240.645 131.746c1.83969,-4.14057 3.38939,-10.9956 5.52048,-15.3992 -2.5183,-12.6873 -5.32659,-22.4691 -9.29764,-32.8323 -3.09912,-2.61496 -10.266,-1.74331 -9.29764,6.97323 6.29547,11.0412 10.6537,24.7944 13.0748,41.2583z"/>
  <path fill="white" d="M28.8332 63.7566c25.6405,9.74722 61.1309,-11.3298 92.1788,-21.1334 34.8415,-11.0015 68.0304,-19.0763 76.8918,-3.82564 8.92602,14.5386 21.6292,28.4959 26.7781,43.6153 2.80318,-1.95732 5.99358,-3.14022 9.57119,-3.54756 -8.03679,-14.8425 -18.1074,-26.1984 -25.8537,-42.7842 -11.1322,-18.881 -31.6245,-18.5445 -62.0785,-7.9166 -11.5203,4.0201 -24.262,6.33345 -37.0939,10.5863 -24.9143,8.25704 -47.0775,23.4723 -80.3937,25.0058z"/>
  <path fill="white" d="M339.489 158.767c6.00463,-6.10158 7.36044,-11.6221 16.2709,-20.048 -3.77717,-3.00217 -8.13544,-6.29518 -9.58819,-9.87875l-22.9536 4.64882c4.6491,12.3001 10.0729,20.7264 16.2709,25.278z"/>
  <path fill="white" d="M310.725 66.081c5.03632,7.55433 4.84271,18.0142 13.3654,28.7646l-13.0748 0.581103c-1.548,-3.19947 -3.1938,-6.10725 -5.52048,-6.97323 -1.16192,-7.82051 0.19389,-15.3261 5.22992,-22.3725z"/>
  <path fill="white" d="M159.376 158.767c-3.38967,-9.58819 -8.2321,-11.3315 -17.1425,-18.8858 1.74331,-2.71162 4.93937,-3.68022 6.39213,-7.26378l27.0213 0.871654c-4.6491,12.3001 -10.0729,20.7264 -16.2709,25.278z"/>
  <path fill="white" d="M188.141 66.081c-5.03632,7.55433 -4.26161,20.3386 -12.7843,31.089l16.2709 0c4.62586,-9.56098 2.5458,-22.6485 -3.48662,-31.089z"/>
  <path fill="white" d="M295.616 327.287c6.97352,-25.956 6.19881,-71.8628 -2.32441,-97.6252 -8.99462,21.3676 -20.4472,36.0649 -34.8662,42.711 31.6279,-25.7128 47.8996,-68.1324 27.6024,-100.24 -16.4645,17.4821 -32.6384,-13.1221 -16.2709,-19.4669 -9.0309,-8.25591 -14.8904,-19.7328 -20.048,-33.4134 -5.15764,13.6806 -11.6782,25.1575 -20.7091,33.4134 16.3675,6.34479 0.193606,36.9491 -16.2709,19.4669 -18.2633,37.6282 -9.83651,71.3313 22.9536,95.8819 -14.7096,-3.7406 -22.6755,-13.7891 -31.6701,-35.1567 -8.52322,25.7624 -7.84517,68.4732 -0.871654,94.4292l92.4753 0z"/>
  <path fill="black" d="M296.779 325.542c6.97352,-25.956 6.19881,-71.8628 -2.32441,-97.6252 -8.99462,21.3676 -20.4472,36.0649 -34.8662,42.711 31.6279,-25.7128 47.8996,-68.1324 27.6024,-100.24 -16.4645,17.4821 -32.6384,-13.1221 -16.2709,-19.4669 -9.0309,-8.25591 -14.8904,-19.7328 -20.048,-33.4134 -5.15764,13.6806 -11.6782,25.1575 -20.7091,33.4134 16.3675,6.34479 0.193606,36.9491 -16.2709,19.4669 -18.2633,37.6282 -9.83651,71.3313 22.9536,95.8819 -14.7096,-3.7406 -22.6755,-13.7891 -31.6701,-35.1567 -8.52322,25.7624 -7.84517,68.4732 -0.871654,94.4292l92.4753 0z"/>
  <path id="path1937_0" fill="white" d="M465.367 325.156c-2.39017,41.5851 -13.0859,77.1659 -29.6626,106.688 -11.8168,-0.0413858 -15.9409,-7.2567 -35.4509,-7.32586 -19.51,-0.0688819 -56.0075,25.0013 -81.6109,24.9106 -25.6034,-0.0904252 -47.2065,-25.3678 -72.0094,-25.4554 -24.8029,-0.0873071 -51.2076,25.0183 -76.8101,24.9276 -25.6025,-0.0907087 -58.1006,-25.4067 -76.8101,-25.4727 -18.7095,-0.0657638 -22.7628,7.1161 -34.5793,7.07443 -16.4704,-29.2074 -26.3322,-64.6464 -29.6994,-105.785l29.6314 0.300756 0 -30.8081 38.9693 -0.302457 -0.59726 31.1236 43.6037 0.0144567 -0.000283465 -30.227 38.5081 0.281197 0.444756 29.9594 47.0923 0.015874 0.580819 -29.6433 41.3096 0.415276 -0.0306142 29.2417 45.9287 0.0155906 0.000850394 -29.6464 35.6134 0.148252 0.432284 29.5104 46.5109 0.0161575 -0.000566929 -31.3914 38.2385 0.100063 0.132945 31.3047 30.2641 0.0104882z"/>
  <path id="path1937_1" fill="#F00000" d="M467.469 328.309c-2.39017,41.5851 -13.0859,77.1659 -29.6626,106.688 -11.8168,-0.0413858 -15.9409,-7.2567 -35.4509,-7.32586 -19.51,-0.0688819 -56.0075,25.0013 -81.6109,24.9106 -25.6034,-0.0904252 -47.2065,-25.3678 -72.0094,-25.4554 -24.8029,-0.0873071 -51.2076,25.0183 -76.8101,24.9276 -25.6025,-0.0907087 -58.1006,-25.4067 -76.8101,-25.4727 -18.7095,-0.0657638 -23.6344,7.1161 -35.4509,7.07443 -16.4702,-29.2074 -27.4944,-64.3561 -30.8619,-105.495l31.6656 0.0104882 0 -30.8081 38.9693 -0.302457 -0.59726 31.1236 43.6037 0.0144567 -0.000283465 -30.227 38.5081 0.281197 0.444756 29.9594 47.0923 0.015874 0.580819 -29.6433 41.3096 0.415276 -0.0306142 29.2417 45.9287 0.0155906 0.000850394 -29.6464 35.6134 0.148252 0.432284 29.5104 46.5109 0.0161575 -0.000566929 -31.3914 38.2385 0.100063 0.132945 31.3047 30.2641 0.0104882z"/>
  <line fill="none" stroke="#8C0000" stroke-width="2.83465" x1="30.4537" y1="343.563" x2="466.193" y2= "343.583" />
  <line fill="none" stroke="#8C0000" stroke-width="2.83465" x1="459.55" y1="380.284" x2="38.2711" y2= "380.247" />
  <line fill="none" stroke="#8C0000" stroke-width="2.83465" x1="50.5846" y1="415.102" x2="447.671" y2= "414.521" />
  <path fill="none" stroke="#8C0000" stroke-width="1.98425" d="M58.724 432.544c10.9766,-6.97663 22.3438,-10.8 41.6506,-10.8 19.3068,0 47.6612,27.5256 72.4465,27.5256 24.7853,0 51.4471,-27.5256 76.2662,-27.5256 24.819,0 46.0452,27.5256 72.6483,27.5256 26.6032,0 64.1398,-27.5256 83.4818,-27.5256 19.3419,0 26.3648,6.7303 34.3145,10.8"/>
  <line fill="none" stroke="#8C0000" stroke-width="2.83465" x1="81.398" y1="343.01" x2="81.398" y2= "379.056" />
  <line fill="none" stroke="#8C0000" stroke-width="2.83465" x1="164.198" y1="343.01" x2="164.198" y2= "379.056" />
  <line fill="none" stroke="#8C0000" stroke-width="2.83465" x1="250.598" y1="343.01" x2="250.598" y2= "379.056" />
  <line fill="none" stroke="#8C0000" stroke-width="2.83465" x1="333.398" y1="343.01" x2="333.398" y2= "379.056" />
  <line fill="none" stroke="#8C0000" stroke-width="2.83465" x1="419.798" y1="343.01" x2="419.798" y2= "379.056" />
  <line fill="none" stroke="#8C0000" stroke-width="2.83465" x1="376.742" y1="379.638" x2="376.742" y2= "414.521" />
  <line fill="none" stroke="#8C0000" stroke-width="2.83465" x1="290.342" y1="379.638" x2="290.342" y2= "414.521" />
  <line fill="none" stroke="#8C0000" stroke-width="2.83465" x1="211.142" y1="379.638" x2="211.142" y2= "414.521" />
  <line fill="none" stroke="#8C0000" stroke-width="2.83465" x1="123.468" y1="379.638" x2="123.468" y2= "414.521" />
  <line fill="none" stroke="#8C0000" stroke-width="2.83465" x1="79.6539" y1="423.242" x2="79.6539" y2= "414.521" />
  <line fill="none" stroke="#8C0000" stroke-width="2.83465" x1="165.699" y1="412.777" x2="165.699" y2= "447.079" />
  <line fill="none" stroke="#8C0000" stroke-width="2.83465" x1="248.854" y1="423.242" x2="248.854" y2= "414.521" />
  <line fill="none" stroke="#8C0000" stroke-width="2.83465" x1="331.992" y1="412.777" x2="331.992" y2= "447.079" />
  <line fill="none" stroke="#8C0000" stroke-width="2.83465" x1="415.728" y1="423.242" x2="415.728" y2= "414.521" />
  <path fill="black" d="M303.752 298.231l0 6.97323c3.09912,2.13052 7.06989,2.22747 10.1693,4.64882l0 -6.97323c-2.80885,-2.1308 -6.77963,-3.0994 -10.1693,-4.64882z"/>
  <path fill="black" d="M356.923 299.393l0 9.87875c25.5444,3.51099 42.251,-12.1303 31.9606,-21.5008 -0.738709,4.58816 -2.47635,6.94375 -6.46526,8.24485 -3.98835,1.3011 -12.8883,0.0870237 -16.4883,0.762237 -3.07276,0.576284 -5.13326,2.03386 -9.00709,2.61496z"/>
  <path fill="black" d="M385.397 286.318c-9.13323,-0.99156 -13.5105,1.34164 -16.5614,8.13544l10.1693 0 6.39213 -8.13544z"/>
  <path fill="black" d="M304.043 276.73l0 6.39213c13.123,5.76255 25.3262,6.92419 36.9,4.93937 1.64636,-2.1308 0.677764,-7.16712 -1.16221,-9.87875 -11.5254,0.677764 -23.438,0.193323 -35.7378,-1.45276z"/>
  <path fill="black" d="M343.848 280.216l2.32441 5.52048c10.7742,-1.76797 20.6045,-3.85058 29.0551,-6.39213 2.80828,-2.32413 -1.93748,-12.009 -8.13544,-11.6221 -8.62045,3.29329 -16.1745,7.65156 -23.2441,12.4937z"/>
  <path fill="black" d="M375.228 268.304l4.64882 8.42599c6.24756,0.390331 8.74971,-1.49329 13.3883,-2.66655 5.25742,-1.32973 9.69449,-2.07978 13.307,-4.46032 3.28876,-2.1668 6.03468,-12.0215 0.907087,-16.4078 -1.83288,4.36904 -5.02696,6.86637 -8.99859,8.29389 -3.97162,1.42753 -10.4726,1.16589 -13.6644,1.8754 -3.48662,0.774993 -6.68268,2.42136 -9.58819,4.93937z"/>
  <path fill="black" d="M386.85 260.168l8.42599 0c1.74331,-4.45493 4.64882,-7.16684 6.97323,-10.7504 -10.3646,0.968315 -14.3354,5.13298 -15.3992,10.7504z"/>
  <path fill="black" d="M338.037 270.047c-12.0095,-1.16249 -23.5352,-2.80914 -33.9945,-5.52048 -0.387496,-1.74331 -0.387213,-3.48662 0,-5.22992 12.0223,-1.58825 24.251,-3.79616 35.4473,-2.90551 4.45493,1.54942 4.26104,13.6556 -1.45276,13.6559z"/>
  <path fill="black" d="M344.429 264.817c0.38778,-2.71134 0.000283465,-5.42325 -1.16221,-8.13544 1.21039,-2.85704 8.47871,-7.41005 7.55405,-6.10129 -0.620221,0.87789 1.11402,-5.56923 6.68296,-6.68296 7.60224,-1.30706 13.3163,10.1214 9.87875,14.5276 -7.65128,3.82649 -15.3028,6.44117 -22.9536,6.39213z"/>
  <path fill="black" d="M363.024 241.573l10.1693 13.6559c9.07711,-1.53354 15.6838,-7.30772 24.8366,-12.1278 5.49213,-2.89191 10.4601,-2.68668 15.8477,-8.62555 6.33629,-6.98457 10.1438,-20.9166 -3.20315,-29.2215 2.5268,18.1111 -14.1404,17.8401 -23.3904,19.444 -9.68315,1.67868 -21.0036,11.3757 -24.26,16.8749z"/>
  <path fill="black" d="M383.944 222.978l11.9126 -2.32441c3.09912,-9.58791 9.39402,-15.3989 11.3315,-18.0142 -7.84517,-2.90523 -22.47,7.16712 -23.2441,20.3386z"/>
  <path fill="black" d="M298.522 229.951l3.48662 22.9536c15.6898,-11.3315 35.1567,-10.4598 42.711,-15.6898 2.32441,-2.9058 2.32441,-6.19909 0,-9.87875l-10.7504 -17.1425c-3.09912,-1.93691 -6.58602,-1.93691 -10.4598,0 -8.32933,9.49153 -22.7599,16.3678 -24.9874,19.7575z"/>
  <path fill="black" d="M348.497 226.464l-13.3654 -18.8858c-0.193606,-7.45739 5.42381,-16.9486 7.26378,-24.9874 2.71219,-2.71162 6.19824,-3.48605 10.4598,-2.32441 10.1222,1.69143 18.9346,5.37336 26.7307,10.1693 3.00217,2.03386 3.67994,4.4555 2.03386,7.26378 -2.73543,10.7014 -22.0575,15.0599 -33.1229,28.7646z"/>
  <path fill="black" d="M385.397 192.47c-11.041,-9.58791 -23.3405,-15.3989 -37.4811,-15.6898 -4.69786,-2.95257 -5.66589,-9.63553 -4.93937,-18.0142l17.7236 -22.663c5.02413,-24.4423 1.27134,-36.8632 -13.0748,-42.711 0.988441,-16.5217 -5.0434,-17.4558 -12.242,-23.0686 -6.97748,-5.44025 -15.7822,-9.59698 -29.0163,-10.9259 19.7717,-23.7444 57.2794,6.23424 82.7847,43.2893 14.2084,20.6425 26.1989,44.0737 21.7536,63.1242 -2.49364,10.6866 -10.4505,22.3194 -25.5084,26.659z"/>
  <path fill="black" d="M280.508 171.55c-11.4284,-1.16192 -15.4959,-6.58517 -12.2032,-16.2709l14.5276 -5.22992c-3.0994,-24.503 33.0259,9.68514 6.39213,7.55433l-8.71654 13.9465z"/>
  <path fill="black" d="M275.569 150.631c-5.18117,-4.96318 -9.73333,-10.2413 -13.3654,-15.9803 2.68753,-10.6288 5.73874,-21.5243 10.7504,-31.3795l2.61496 47.3599z"/>
  <path fill="black" d="M258.717 130.001c-1.83969,-4.14057 -3.38939,-10.9956 -5.52048,-15.3992 2.5183,-12.6873 5.32659,-22.4691 9.29764,-32.8323 3.09912,-2.61496 10.266,-1.74331 9.29764,6.97323 -6.29547,11.0412 -10.6537,24.7944 -13.0748,41.2583z"/>
  <path fill="black" d="M470.528 62.0124c-25.6405,9.74722 -61.1309,-11.3298 -92.1788,-21.1334 -34.8415,-11.0015 -68.0304,-19.0763 -76.8918,-3.82564 -8.92602,14.5386 -21.6292,28.4959 -26.7781,43.6153 -2.80318,-1.95732 -5.99358,-3.14022 -9.57119,-3.54756 8.03679,-14.8425 18.1074,-26.1984 25.8537,-42.7842 11.1322,-18.881 31.6245,-18.5445 62.0785,-7.9166 11.5203,4.0201 24.262,6.33345 37.0939,10.5863 24.9143,8.25704 47.0775,23.4723 80.3937,25.0058z"/>
  <path fill="black" d="M196.772 298.231l0 6.97323c-3.09912,2.13052 -7.06989,2.22747 -10.1693,4.64882l0 -6.97323c2.80885,-2.1308 6.77963,-3.0994 10.1693,-4.64882z"/>
  <path fill="black" d="M115.127 286.318c9.13323,-0.99156 13.5105,1.34164 16.5614,8.13544l-10.1693 0 -6.39213 -8.13544z"/>
  <path fill="black" d="M196.482 276.73l0 6.39213c-13.123,5.76255 -25.3262,6.92419 -36.9,4.93937 -1.64636,-2.1308 -0.677764,-7.16712 1.16221,-9.87875 11.5254,0.677764 23.438,0.193323 35.7378,-1.45276z"/>
  <path fill="black" d="M156.676 280.216l-2.32441 5.52048c-10.7742,-1.76797 -20.6045,-3.85058 -29.0551,-6.39213 -2.80828,-2.32413 1.93748,-12.009 8.13544,-11.6221 8.62045,3.29329 16.1745,7.65156 23.2441,12.4937z"/>
  <path fill="black" d="M125.297 268.304l-4.64882 8.42599c-6.24756,0.390331 -8.74971,-1.49329 -13.3883,-2.66655 -5.25742,-1.32973 -9.69449,-2.07978 -13.307,-4.46032 -3.28876,-2.1668 -6.03468,-12.0215 -0.907087,-16.4078 1.83288,4.36904 5.02696,6.86637 8.99859,8.29389 3.97162,1.42753 10.4726,1.16589 13.6644,1.8754 3.48662,0.774993 6.68268,2.42136 9.58819,4.93937z"/>
  <path fill="black" d="M113.675 260.168l-8.42599 0c-1.74331,-4.45493 -4.64882,-7.16684 -6.97323,-10.7504 10.3646,0.968315 14.3354,5.13298 15.3992,10.7504z"/>
  <path fill="black" d="M162.487 270.047c12.0095,-1.16249 23.5352,-2.80914 33.9945,-5.52048 0.387496,-1.74331 0.387213,-3.48662 0,-5.22992 -12.0223,-1.58825 -24.251,-3.79616 -35.4473,-2.90551 -4.45493,1.54942 -4.26104,13.6556 1.45276,13.6559z"/>
  <path fill="black" d="M156.095 264.817c-0.38778,-2.71134 -0.000283465,-5.42325 1.16221,-8.13544 -1.21039,-2.85704 -8.47871,-7.41005 -7.55405,-6.10129 0.620221,0.87789 -1.11402,-5.56923 -6.68296,-6.68296 -7.60224,-1.30706 -13.3163,10.1214 -9.87875,14.5276 7.65128,3.82649 15.3028,6.44117 22.9536,6.39213z"/>
  <path fill="black" d="M137.5 241.573l-10.1693 13.6559c-9.07711,-1.53354 -15.6838,-7.30772 -24.8366,-12.1278 -5.49213,-2.89191 -10.4601,-2.68668 -15.8477,-8.62555 -6.33629,-6.98457 -10.1438,-20.9166 3.20315,-29.2215 -2.5268,18.1111 14.1404,17.8401 23.3904,19.444 9.68315,1.67868 21.0036,11.3757 24.26,16.8749z"/>
  <path fill="black" d="M116.58 222.978l-11.9126 -2.32441c-3.09912,-9.58791 -9.39402,-15.3989 -11.3315,-18.0142 7.84517,-2.90523 22.47,7.16712 23.2441,20.3386z"/>
  <path fill="black" d="M202.002 229.951l-3.48662 22.9536c-15.6898,-11.3315 -35.1567,-10.4598 -42.711,-15.6898 -2.32441,-2.9058 -2.32441,-6.19909 0,-9.87875l10.7504 -17.1425c3.09912,-1.93691 6.58602,-1.93691 10.4598,0 8.32933,9.49153 22.7599,16.3678 24.9874,19.7575z"/>
  <path fill="black" d="M152.028 226.464l13.3654 -18.8858c0.193606,-7.45739 -5.42381,-16.9486 -7.26378,-24.9874 -2.71219,-2.71162 -6.19824,-3.48605 -10.4598,-2.32441 -10.1222,1.69143 -18.9346,5.37336 -26.7307,10.1693 -3.00217,2.03386 -3.67994,4.4555 -2.03386,7.26378 2.73543,10.7014 22.0575,15.0599 33.1229,28.7646z"/>
  <path fill="black" d="M115.127 192.47c11.041,-9.58791 23.3405,-15.3989 37.4811,-15.6898 4.69786,-2.95257 5.66589,-9.63553 4.93937,-18.0142 -2.71191,-11.6221 -13.2687,-13.3654 -17.7236,-22.663 -5.02413,-24.4423 -1.27134,-36.8632 13.0748,-42.711 -0.988441,-16.5217 5.0434,-17.4558 12.242,-23.0686 6.97748,-5.44025 15.7822,-9.59698 29.0163,-10.9259 -19.7717,-23.7444 -57.2794,6.23424 -82.7847,43.2893 -14.2084,20.6425 -26.1989,44.0737 -21.7536,63.1242 2.49364,10.6866 10.4505,22.3194 25.5084,26.659z"/>
  <path fill="black" d="M220.017 171.55c11.4284,-1.16192 15.4959,-6.58517 12.2032,-16.2709l-14.5276 -5.22992c3.0994,-24.503 -33.0259,9.68514 -6.39213,7.55433l8.71654 13.9465z"/>
  <path fill="black" d="M224.956 150.631c5.18117,-4.96318 9.73333,-10.2413 13.3654,-15.9803 -2.68753,-10.6288 -5.73874,-21.5243 -10.7504,-31.3795l-2.61496 47.3599z"/>
  <path fill="black" d="M241.808 130.001c1.83969,-4.14057 3.38939,-10.9956 5.52048,-15.3992 -2.5183,-12.6873 -5.32659,-22.4691 -9.29764,-32.8323 -3.09912,-2.61496 -10.266,-1.74331 -9.29764,6.97323 6.29547,11.0412 10.6537,24.7944 13.0748,41.2583z"/>
  <path fill="black" d="M29.996 62.0124c25.6405,9.74722 61.1309,-11.3298 92.1788,-21.1334 34.8415,-11.0015 68.0304,-19.0763 76.8918,-3.82564 8.92602,14.5386 21.6292,28.4959 26.7781,43.6153 2.80318,-1.95732 5.99358,-3.14022 9.57119,-3.54756 -8.03679,-14.8425 -18.1074,-26.1984 -25.8537,-42.7842 -11.1322,-18.881 -31.6245,-18.5445 -62.0785,-7.9166 -11.5203,4.0201 -24.262,6.33345 -37.0939,10.5863 -24.9143,8.25704 -47.0775,23.4723 -80.3937,25.0058z"/>
  <path fill="black" d="M340.652 157.023c6.00463,-6.10158 7.36044,-11.6221 16.2709,-20.048 -3.77717,-3.00217 -8.13544,-6.29518 -9.58819,-9.87875l-22.9536 4.64882c4.6491,12.3001 10.0729,20.7264 16.2709,25.278z"/>
  <path fill="black" stroke="black" stroke-width="0.992126" d="M311.887 64.3369c5.03632,7.55433 4.84271,18.0142 13.3654,28.7646l-13.0748 0.581103c-1.548,-3.19947 -3.1938,-6.10725 -5.52048,-6.97323 -1.16192,-7.82051 0.19389,-15.3261 5.22992,-22.3725z"/>
  <path fill="black" d="M160.539 157.023c-3.38967,-9.58819 -8.2321,-11.3315 -17.1425,-18.8858 1.74331,-2.71162 4.93937,-3.68022 6.39213,-7.26378l27.0213 0.871654c-4.6491,12.3001 -10.0729,20.7264 -16.2709,25.278z"/>
  <path fill="black" stroke="black" stroke-width="0.992126" d="M189.304 64.3369c-5.03632,7.55433 -4.26161,20.3386 -12.7843,31.089l16.2709 0c4.62586,-9.56098 2.5458,-22.6485 -3.48662,-31.089z"/>
  <path fill="black" d="M450.19 194.794c-0.169512,-14.1097 0.330803,-21.8211 10.8227,-42.0392 19.7541,-38.0668 -8.86167,-46.4519 -11.9849,-54.7144 26.0286,13.684 29.132,37.965 10.2005,66.9986 -8.31204,12.7477 -2.10019,24.9463 -8.74772,37.3093l-0.290551 -7.55433z"/>
  <path fill="black" d="M397.6 116.346c22.3237,-4.17657 39.5632,-1.15002 52.5898,7.84489l-2.32441 2.32441c-11.5169,-8.8081 -28.2634,-10.8839 -49.0777,-8.8441l-1.18772 -1.3252z"/>
  <path fill="white" d="M450.48 195.666c-15.097,-16.9577 6.66964,-37.2878 5.48816,-54.8935 -1.09758,-16.3536 -18.8649,-26.0541 -56.9157,-22.9742l0.871654 2.03386c9.37928,0.581103 40.9717,-1.64693 48.767,10.1693 15.9194,24.1308 -23.1165,45.9071 0.917292,73.5095l0.871654 -7.84489z"/>
  <path fill="white" d="M467.623 130.873c-0.0847559,-20.3375 -26.2324,-44.3339 -84.841,-39.2244l-1.45276 -1.45276c47.4687,-6.19172 86.5698,11.6056 86.2937,40.6772z"/>
  <path fill="white" d="M215.424 105.886c-20.6538,-1.71978 -47.6266,-1.67159 -61.8874,-7.26378 19.6107,3.31824 40.4337,4.8189 61.5969,5.81103l0.290551 1.45276z"/>
  <polygon fill="white" points="274.116,100.656 304.914,98.6219 304.043,96.588 "/>
  <circle fill="white" cx="75.3787" cy="107.629" r="3.19606"/>
  <circle fill="black" cx="76.8314" cy="105.886" r="3.19606"/>
  <circle fill="white" cx="88.1629" cy="110.825" r="3.19606"/>
  <circle fill="black" cx="89.6157" cy="109.082" r="3.19606"/>
  <circle fill="white" cx="98.9133" cy="114.893" r="3.19606"/>
  <circle fill="black" cx="100.366" cy="113.149" r="3.19606"/>
  <circle fill="white" cx="145.1" cy="122.748" r="2.6042"/>
  <circle fill="black" cx="146.284" cy="121.328" r="2.6042"/>
  <circle fill="white" cx="157.605" cy="123.9" r="3.19606"/>
  <circle fill="black" cx="159.057" cy="122.157" r="3.19606"/>
  <path fill="white" d="M56.7834 118.961c-11.113,3.73125 -28.4012,0.146551 -34.8662,-12.2032l-2.32441 1.16221c7.66489,12.3027 23.0057,17.0498 37.1906,11.041z"/>
  <path fill="white" d="M55.9117 91.9392c-13.0748,3.12378 -23.6319,7.82107 -30.5079,14.8181 5.22964,-7.81994 15.9795,-12.4203 30.5079,-14.8181z"/>
  <path fill="white" d="M48.9385 123.609c-9.39459,0.871654 -19.5642,-2.13109 -30.5079,-9.00709 7.0458,10.9922 25.2048,15.0602 30.5079,9.00709z"/>
  <path fill="#644D36" d="M452.805 81.4794c14.19,10.0347 13.6817,13.3827 18.8793,19.6044 3.73181,4.46769 1.64183,11.725 5.98734,20.217 2.14951,4.20066 -2.16085,14.4298 -2.17871,19.8995 -0.0286299,8.68933 -12.9115,28.5982 -11.1886,36.0998 2.55997,11.1467 5.11796,15.7306 -12.0804,34.0557l-0.290551 5.81103c7.8653,-8.23578 18.5383,-21.0121 16.0552,-32.5931 -4.41128,-20.5742 10.421,-29.6051 9.54,-42.1773 -0.603496,-8.61222 4.51503,-10.209 3.79701,-18.1259 -0.451559,-4.97962 -5.15055,-8.57169 -4.94844,-16.9347 0.128976,-5.33311 -5.01619,-6.9429 -6.23963,-11.5988 -1.60073,-6.09137 -9.40082,-10.6673 -17.3324,-14.2577z"/>
  <path fill="#644D36" d="M436.243 78.5739c-1.69512,0.291118 -6.44089,-2.61468 -13.3654,-6.10158 8.2321,0.290551 8.91015,4.06772 13.3654,6.10158z"/>
  <ellipse fill="#336666" cx="48.7932" cy="106.176" rx="6.82796" ry="7.84489"/>
  <path fill="white" d="M48.9382 99.7841c4.17118,0 6.97352,2.57188 6.97352,6.10158 0,2.64728 -2.41625,5.42778 -5.19562,6.1801 -1.19339,0.32315 -0.0935434,-3.62069 -2.06844,-4.43679 -3.82422,-1.58032 -3.68334,4.22334 -5.05049,3.0668 -1.36715,-1.15654 -2.21301,-2.75471 -2.21301,-4.51956 0,-3.5297 3.38287,-6.39213 7.55405,-6.39213z"/>
  <path fill="black" d="M52.4251 100.365c3.19578,1.25887 4.06744,4.45493 2.61496,9.58819 3.58328,-7.26407 2.13052,-11.4284 -4.35827,-12.4937l1.74331 2.90551z"/>
  <path fill="#336666" d="M360.099 125.03c-1.72432,0.273827 -3.44069,0.559559 -5.14914,0.853796 2.11011,-13.6398 -2.75273,-23.0168 -14.5882,-28.1339l-29.3457 2.61496 -44.7449 0.290551 0.923528 -3.20343c33.6096,-6.01455 35.4509,-14.4629 43.5603,0.50315 11.1733,-1.36233 23.2665,-1.89751 35.2443,-3.00132 5.83059,6.82356 13.4348,8.61478 14.0998,30.0762zm116.078 4.92293c1.82948,-5.73279 -5.42353,-13.2228 -3.95206,-23.4748 0.35178,-2.4514 -5.52643,-5.58085 -6.62287,-9.1732 -1.27134,-4.1658 -4.72649,-6.51374 -5.55137,-7.46278 -8.38574,-9.64942 -27.9091,-7.58268 -31.3407,-12.0719 -3.73181,-4.88211 -17.9096,-3.77575 -20.5149,-4.23184 -8.14167,-1.42554 -12.9254,-6.00832 -30.6839,12.5348l1.78413 1.79802c11.7488,-12.9952 15.5254,-15.7896 27.6075,-11.6306 5.6418,1.94202 14.3992,-1.91877 20.6498,3.96851 8.95748,8.43733 22.8648,3.50051 31.3702,12.6731 3.97247,4.28372 5.39093,7.63342 9.01163,12.21 2.71389,3.43049 2.78532,9.25456 4.01811,14.6914 0.958678,4.22929 3.19465,8.33953 4.22447,10.1693zm-219.336 -30.8906c-3.70092,0.494079 -7.70599,0.946205 -12.0447,1.33597l6.0755 11.8792 5.9692 -13.2151zm-26.3866 2.19458c-27.9882,0.578835 -54.3751,-1.30961 -77.552,-3.9172 27.6202,5.07629 47.6861,5.50347 78.5024,7.38341l-0.950457 -3.46621zm-119.628 -6.12199c-1.3561,6.48907 -7.36073,17.6267 -11.041,26.4402 5.37137,-9.91786 11.4687,-19.5919 19.1656,-28.7345 -25.6519,-3.82309 -44.1406,-7.27852 -51.7011,-6.27194 -31.8577,4.24148 -39.4963,13.1987 -44.2559,18.1378 22.3767,-15.5387 50.7337,-20.3754 87.8324,-9.57147"/>
  <path fill="black" d="M143.602 299.393l0 9.87875c-25.5444,3.51099 -42.251,-12.1303 -31.9606,-21.5008 0.738709,4.58816 2.47635,6.94375 6.46526,8.24485 3.98835,1.3011 12.8883,0.0870237 16.4883,0.762237 3.07276,0.576284 5.13326,2.03386 9.00709,2.61496z"/>
  <path fill="black" d="M303.752 298.231l0 6.97323c3.09912,2.13052 7.06989,2.22747 10.1693,4.64882l0 -6.97323c-2.80885,-2.1308 -6.77963,-3.0994 -10.1693,-4.64882z"/>
  <path fill="black" d="M356.923 299.393l0 9.87875c25.5444,3.51099 42.251,-12.1303 31.9606,-21.5008 -0.738709,4.58816 -2.47635,6.94375 -6.46526,8.24485 -3.98835,1.3011 -12.8883,0.0870237 -16.4883,0.762237 -3.07276,0.576284 -5.13326,2.03386 -9.00709,2.61496z"/>
  <path fill="black" d="M385.397 286.318c-9.13323,-0.99156 -13.5105,1.34164 -16.5614,8.13544l10.1693 0 6.39213 -8.13544z"/>
  <path fill="black" d="M304.043 276.73l0 6.39213c13.123,5.76255 25.3262,6.92419 36.9,4.93937 1.64636,-2.1308 0.677764,-7.16712 -1.16221,-9.87875 -11.5254,0.677764 -23.438,0.193323 -35.7378,-1.45276z"/>
  <path fill="black" d="M343.848 280.216l2.32441 5.52048c10.7742,-1.76797 20.6045,-3.85058 29.0551,-6.39213 2.80828,-2.32413 -1.93748,-12.009 -8.13544,-11.6221 -8.62045,3.29329 -16.1745,7.65156 -23.2441,12.4937z"/>
  <path fill="black" d="M375.228 268.304l4.64882 8.42599c6.24756,0.390331 8.74971,-1.49329 13.3883,-2.66655 5.25742,-1.32973 9.69449,-2.07978 13.307,-4.46032 3.28876,-2.1668 6.03468,-12.0215 0.907087,-16.4078 -1.83288,4.36904 -5.02696,6.86637 -8.99859,8.29389 -3.97162,1.42753 -10.4726,1.16589 -13.6644,1.8754 -3.48662,0.774993 -6.68268,2.42136 -9.58819,4.93937z"/>
  <path fill="black" d="M386.85 260.168l8.42599 0c1.74331,-4.45493 4.64882,-7.16684 6.97323,-10.7504 -10.3646,0.968315 -14.3354,5.13298 -15.3992,10.7504z"/>
  <path fill="black" d="M338.037 270.047c-12.0095,-1.16249 -23.5352,-2.80914 -33.9945,-5.52048 -0.387496,-1.74331 -0.387213,-3.48662 0,-5.22992 12.0223,-1.58825 24.251,-3.79616 35.4473,-2.90551 4.45493,1.54942 4.26104,13.6556 -1.45276,13.6559z"/>
  <path fill="black" d="M344.429 264.817c0.38778,-2.71134 0.000283465,-5.42325 -1.16221,-8.13544 1.21039,-2.85704 8.47871,-7.41005 7.55405,-6.10129 -0.620221,0.87789 1.11402,-5.56923 6.68296,-6.68296 7.60224,-1.30706 13.3163,10.1214 9.87875,14.5276 -7.65128,3.82649 -15.3028,6.44117 -22.9536,6.39213z"/>
  <path fill="black" d="M363.024 241.573l10.1693 13.6559c9.07711,-1.53354 15.6838,-7.30772 24.8366,-12.1278 5.49213,-2.89191 10.4601,-2.68668 15.8477,-8.62555 6.33629,-6.98457 10.1438,-20.9166 -3.20315,-29.2215 2.5268,18.1111 -14.1404,17.8401 -23.3904,19.444 -9.68315,1.67868 -21.0036,11.3757 -24.26,16.8749z"/>
  <path fill="black" d="M383.944 222.978l11.9126 -2.32441c3.09912,-9.58791 9.39402,-15.3989 11.3315,-18.0142 -7.84517,-2.90523 -22.47,7.16712 -23.2441,20.3386z"/>
  <path fill="black" d="M298.522 229.951l3.48662 22.9536c15.6898,-11.3315 35.1567,-10.4598 42.711,-15.6898 2.32441,-2.9058 2.32441,-6.19909 0,-9.87875l-10.7504 -17.1425c-3.09912,-1.93691 -6.58602,-1.93691 -10.4598,0 -8.32933,9.49153 -22.7599,16.3678 -24.9874,19.7575z"/>
  <path fill="black" d="M348.497 226.464l-13.3654 -18.8858c-0.193606,-7.45739 5.42381,-16.9486 7.26378,-24.9874 2.71219,-2.71162 6.19824,-3.48605 10.4598,-2.32441 10.1222,1.69143 18.9346,5.37336 26.7307,10.1693 3.00217,2.03386 3.67994,4.4555 2.03386,7.26378 -2.73543,10.7014 -22.0575,15.0599 -33.1229,28.7646z"/>
  <path fill="black" d="M385.397 192.47c-11.041,-9.58791 -23.3405,-15.3989 -37.4811,-15.6898 -4.69786,-2.95257 -5.66589,-9.63553 -4.93937,-18.0142l17.7236 -22.663c5.02413,-24.4423 1.27134,-36.8632 -13.0748,-42.711 0.988441,-16.5217 -5.0434,-17.4558 -12.242,-23.0686 -6.97748,-5.44025 -15.7822,-9.59698 -29.0163,-10.9259 19.7717,-23.7444 57.2794,6.23424 82.7847,43.2893 14.2084,20.6425 26.1989,44.0737 21.7536,63.1242 -2.49364,10.6866 -10.4505,22.3194 -25.5084,26.659z"/>
  <path fill="black" d="M280.508 171.55c-11.4284,-1.16192 -15.4959,-6.58517 -12.2032,-16.2709l14.5276 -5.22992c-3.0994,-24.503 33.0259,9.68514 6.39213,7.55433l-8.71654 13.9465z"/>
  <path fill="black" d="M275.569 150.631c-5.18117,-4.96318 -9.73333,-10.2413 -13.3654,-15.9803 2.68753,-10.6288 5.73874,-21.5243 10.7504,-31.3795l2.61496 47.3599z"/>
  <path fill="black" d="M258.717 130.001c-1.83969,-4.14057 -3.38939,-10.9956 -5.52048,-15.3992 2.5183,-12.6873 5.32659,-22.4691 9.29764,-32.8323 3.09912,-2.61496 10.266,-1.74331 9.29764,6.97323 -6.29547,11.0412 -10.6537,24.7944 -13.0748,41.2583z"/>
  <path fill="black" d="M470.528 62.0124c-25.6405,9.74722 -61.1309,-11.3298 -92.1788,-21.1334 -34.8415,-11.0015 -68.0304,-19.0763 -76.8918,-3.82564 -8.92602,14.5386 -21.6292,28.4959 -26.7781,43.6153 -2.80318,-1.95732 -5.99358,-3.14022 -9.57119,-3.54756 8.03679,-14.8425 18.1074,-26.1984 25.8537,-42.7842 11.1322,-18.881 31.6245,-18.5445 62.0785,-7.9166 11.5203,4.0201 24.262,6.33345 37.0939,10.5863 24.9143,8.25704 47.0775,23.4723 80.3937,25.0058z"/>
  <path fill="black" d="M196.772 298.231l0 6.97323c-3.09912,2.13052 -7.06989,2.22747 -10.1693,4.64882l0 -6.97323c2.80885,-2.1308 6.77963,-3.0994 10.1693,-4.64882z"/>
  <path fill="black" d="M115.127 286.318c9.13323,-0.99156 13.5105,1.34164 16.5614,8.13544l-10.1693 0 -6.39213 -8.13544z"/>
  <path fill="black" d="M196.482 276.73l0 6.39213c-13.123,5.76255 -25.3262,6.92419 -36.9,4.93937 -1.64636,-2.1308 -0.677764,-7.16712 1.16221,-9.87875 11.5254,0.677764 23.438,0.193323 35.7378,-1.45276z"/>
  <path fill="black" d="M156.676 280.216l-2.32441 5.52048c-10.7742,-1.76797 -20.6045,-3.85058 -29.0551,-6.39213 -2.80828,-2.32413 1.93748,-12.009 8.13544,-11.6221 8.62045,3.29329 16.1745,7.65156 23.2441,12.4937z"/>
  <path fill="black" d="M125.297 268.304l-4.64882 8.42599c-6.24756,0.390331 -8.74971,-1.49329 -13.3883,-2.66655 -5.25742,-1.32973 -9.69449,-2.07978 -13.307,-4.46032 -3.28876,-2.1668 -6.03468,-12.0215 -0.907087,-16.4078 1.83288,4.36904 5.02696,6.86637 8.99859,8.29389 3.97162,1.42753 10.4726,1.16589 13.6644,1.8754 3.48662,0.774993 6.68268,2.42136 9.58819,4.93937z"/>
  <path fill="black" d="M113.675 260.168l-8.42599 0c-1.74331,-4.45493 -4.64882,-7.16684 -6.97323,-10.7504 10.3646,0.968315 14.3354,5.13298 15.3992,10.7504z"/>
  <path fill="black" d="M162.487 270.047c12.0095,-1.16249 23.5352,-2.80914 33.9945,-5.52048 0.387496,-1.74331 0.387213,-3.48662 0,-5.22992 -12.0223,-1.58825 -24.251,-3.79616 -35.4473,-2.90551 -4.45493,1.54942 -4.26104,13.6556 1.45276,13.6559z"/>
  <path fill="black" d="M156.095 264.817c-0.38778,-2.71134 -0.000283465,-5.42325 1.16221,-8.13544 -1.21039,-2.85704 -8.47871,-7.41005 -7.55405,-6.10129 0.620221,0.87789 -1.11402,-5.56923 -6.68296,-6.68296 -7.60224,-1.30706 -13.3163,10.1214 -9.87875,14.5276 7.65128,3.82649 15.3028,6.44117 22.9536,6.39213z"/>
  <path fill="black" d="M137.5 241.573l-10.1693 13.6559c-9.07711,-1.53354 -15.6838,-7.30772 -24.8366,-12.1278 -5.49213,-2.89191 -10.4601,-2.68668 -15.8477,-8.62555 -6.33629,-6.98457 -10.1438,-20.9166 3.20315,-29.2215 -2.5268,18.1111 14.1404,17.8401 23.3904,19.444 9.68315,1.67868 21.0036,11.3757 24.26,16.8749z"/>
  <path fill="black" d="M116.58 222.978l-11.9126 -2.32441c-3.09912,-9.58791 -9.39402,-15.3989 -11.3315,-18.0142 7.84517,-2.90523 22.47,7.16712 23.2441,20.3386z"/>
  <path fill="black" d="M202.002 229.951l-3.48662 22.9536c-15.6898,-11.3315 -35.1567,-10.4598 -42.711,-15.6898 -2.32441,-2.9058 -2.32441,-6.19909 0,-9.87875l10.7504 -17.1425c3.09912,-1.93691 6.58602,-1.93691 10.4598,0 8.32933,9.49153 22.7599,16.3678 24.9874,19.7575z"/>
  <path fill="black" d="M152.028 226.464l13.3654 -18.8858c0.193606,-7.45739 -5.42381,-16.9486 -7.26378,-24.9874 -2.71219,-2.71162 -6.19824,-3.48605 -10.4598,-2.32441 -10.1222,1.69143 -18.9346,5.37336 -26.7307,10.1693 -3.00217,2.03386 -3.67994,4.4555 -2.03386,7.26378 2.73543,10.7014 22.0575,15.0599 33.1229,28.7646z"/>
  <path fill="black" d="M115.127 192.47c11.041,-9.58791 23.3405,-15.3989 37.4811,-15.6898 4.69786,-2.95257 5.66589,-9.63553 4.93937,-18.0142 -2.71191,-11.6221 -13.2687,-13.3654 -17.7236,-22.663 -5.02413,-24.4423 -1.27134,-36.8632 13.0748,-42.711 -0.988441,-16.5217 5.0434,-17.4558 12.242,-23.0686 6.97748,-5.44025 15.7822,-9.59698 29.0163,-10.9259 -19.7717,-23.7444 -57.2794,6.23424 -82.7847,43.2893 -14.2084,20.6425 -26.1989,44.0737 -21.7536,63.1242 2.49364,10.6866 10.4505,22.3194 25.5084,26.659z"/>
  <path fill="black" d="M220.017 171.55c11.4284,-1.16192 15.4959,-6.58517 12.2032,-16.2709l-14.5276 -5.22992c3.0994,-24.503 -33.0259,9.68514 -6.39213,7.55433l8.71654 13.9465z"/>
  <path fill="black" d="M224.956 150.631c5.18117,-4.96318 9.73333,-10.2413 13.3654,-15.9803 -2.68753,-10.6288 -5.73874,-21.5243 -10.7504,-31.3795l-2.61496 47.3599z"/>
  <path fill="black" d="M241.808 130.001c1.83969,-4.14057 3.38939,-10.9956 5.52048,-15.3992 -2.5183,-12.6873 -5.32659,-22.4691 -9.29764,-32.8323 -3.09912,-2.61496 -10.266,-1.74331 -9.29764,6.97323 6.29547,11.0412 10.6537,24.7944 13.0748,41.2583z"/>
  <path fill="black" d="M29.996 62.0124c25.6405,9.74722 61.1309,-11.3298 92.1788,-21.1334 34.8415,-11.0015 68.0304,-19.0763 76.8918,-3.82564 8.92602,14.5386 21.6292,28.4959 26.7781,43.6153 2.80318,-1.95732 5.99358,-3.14022 9.57119,-3.54756 -8.03679,-14.8425 -18.1074,-26.1984 -25.8537,-42.7842 -11.1322,-18.881 -31.6245,-18.5445 -62.0785,-7.9166 -11.5203,4.0201 -24.262,6.33345 -37.0939,10.5863 -24.9143,8.25704 -47.0775,23.4723 -80.3937,25.0058z"/>
  <path fill="black" d="M340.652 157.023c6.00463,-6.10158 7.36044,-11.6221 16.2709,-20.048 -3.77717,-3.00217 -8.13544,-6.29518 -9.58819,-9.87875l-22.9536 4.64882c4.6491,12.3001 10.0729,20.7264 16.2709,25.278z"/>
  <path fill="black" d="M311.887 64.3369c5.03632,7.55433 4.84271,18.0142 13.3654,28.7646l-13.0748 0.581103c-1.548,-3.19947 -3.1938,-6.10725 -5.52048,-6.97323 -1.16192,-7.82051 0.19389,-15.3261 5.22992,-22.3725z"/>
  <path fill="black" d="M160.539 157.023c-3.38967,-9.58819 -8.2321,-11.3315 -17.1425,-18.8858 1.74331,-2.71162 4.93937,-3.68022 6.39213,-7.26378l27.0213 0.871654c-4.6491,12.3001 -10.0729,20.7264 -16.2709,25.278z"/>
  <path fill="black" d="M189.304 64.3369c-5.03632,7.55433 -4.26161,20.3386 -12.7843,31.089l16.2709 0c4.62586,-9.56098 2.5458,-22.6485 -3.48662,-31.089z"/>
  <path fill="black" d="M326.124 130.873c-22.2285,2.58321 -41.9207,4.49717 -49.3937,3.19606l0.581103 3.19606c17.8206,-0.19389 34.0912,-2.32441 48.8126,-6.39213z"/>
  <path fill="black" d="M51.5534 119.251c-4.91528,4.08841 -15.6402,3.01691 -24.7074,-1.6577 -1.35071,-0.696473 -1.41817,0.298488 -2.89503,-0.376158 7.72328,7.0458 24.4298,9.51534 30.7984,2.03386l-3.19606 0z"/>
  <path id="path1937_2" fill="none" stroke="black" stroke-width="0.992126" d="M0.161858 0.579969l499.554 -0.121606 -32.2461 327.851c-16.2238,282.265 -415.087,287.889 -438.667,-0.148819l-28.6404 -327.58z"/>
 </g>
</svg>
